<svg xmlns="http://www.w3.org/2000/svg" viewBox="0 0 32 32" width="32" height="32">
  <!-- Minimalist building icon - outline only -->
  
  <!-- Main building (tallest) -->
  <rect x="10" y="4" width="12" height="24" 
        fill="none" 
        stroke="#3498db" 
        stroke-width="2" 
        stroke-linejoin="round"/>
  
  <!-- Left building (medium) -->
  <rect x="2" y="12" width="8" height="16" 
        fill="none" 
        stroke="#3498db" 
        stroke-width="1.5" 
        stroke-linejoin="round"/>
  
  <!-- Right building (shortest) -->
  <rect x="22" y="16" width="8" height="12" 
        fill="none" 
        stroke="#3498db" 
        stroke-width="1.5" 
        stroke-linejoin="round"/>
  
  <!-- Windows -->
  <rect x="12" y="8" width="2" height="2" fill="#3498db"/>
  <rect x="16" y="8" width="2" height="2" fill="#3498db"/>
  <rect x="12" y="12" width="2" height="2" fill="#3498db"/>
  <rect x="16" y="12" width="2" height="2" fill="#3498db"/>
  <rect x="12" y="16" width="2" height="2" fill="#3498db"/>
  <rect x="16" y="16" width="2" height="2" fill="#3498db"/>
  
  <rect x="4" y="16" width="1.5" height="1.5" fill="#3498db"/>
  <rect x="6.5" y="16" width="1.5" height="1.5" fill="#3498db"/>
  <rect x="4" y="20" width="1.5" height="1.5" fill="#3498db"/>
  <rect x="6.5" y="20" width="1.5" height="1.5" fill="#3498db"/>
  
  <rect x="24" y="20" width="1.5" height="1.5" fill="#3498db"/>
  <rect x="26.5" y="20" width="1.5" height="1.5" fill="#3498db"/>
</svg>
