<svg xmlns="http://www.w3.org/2000/svg" viewBox="0 0 100 100" width="100" height="100">
  <!-- Background circle -->
  <circle cx="50" cy="50" r="48" fill="#3498db" stroke="#2c3e50" stroke-width="2"/>
  
  <!-- Building -->
  <rect x="30" y="35" width="40" height="45" fill="#2c3e50" rx="2"/>
  
  <!-- Windows -->
  <rect x="35" y="40" width="6" height="6" fill="#3498db" rx="1"/>
  <rect x="45" y="40" width="6" height="6" fill="#3498db" rx="1"/>
  <rect x="55" y="40" width="6" height="6" fill="#3498db" rx="1"/>
  
  <rect x="35" y="50" width="6" height="6" fill="#3498db" rx="1"/>
  <rect x="45" y="50" width="6" height="6" fill="#3498db" rx="1"/>
  <rect x="55" y="50" width="6" height="6" fill="#3498db" rx="1"/>
  
  <rect x="35" y="60" width="6" height="6" fill="#3498db" rx="1"/>
  <rect x="45" y="60" width="6" height="6" fill="#3498db" rx="1"/>
  <rect x="55" y="60" width="6" height="6" fill="#3498db" rx="1"/>
  
  <!-- Door -->
  <rect x="45" y="70" width="6" height="10" fill="#e74c3c" rx="1"/>
  <circle cx="49" cy="75" r="0.5" fill="#f1c40f"/>
  
  <!-- Roof -->
  <polygon points="25,35 50,20 75,35" fill="#e74c3c"/>
  <polygon points="27,35 50,22 73,35" fill="#c0392b"/>
</svg>
