<svg xmlns="http://www.w3.org/2000/svg" viewBox="0 0 64 64" width="64" height="64">
  <!-- Modern building icon without background -->
  <defs>
    <linearGradient id="buildingGradient" x1="0%" y1="0%" x2="100%" y2="100%">
      <stop offset="0%" style="stop-color:#3498db;stop-opacity:1" />
      <stop offset="100%" style="stop-color:#2980b9;stop-opacity:1" />
    </linearGradient>
    <linearGradient id="building2Gradient" x1="0%" y1="0%" x2="100%" y2="100%">
      <stop offset="0%" style="stop-color:#2ecc71;stop-opacity:1" />
      <stop offset="100%" style="stop-color:#27ae60;stop-opacity:1" />
    </linearGradient>
    <linearGradient id="building3Gradient" x1="0%" y1="0%" x2="100%" y2="100%">
      <stop offset="0%" style="stop-color:#e74c3c;stop-opacity:1" />
      <stop offset="100%" style="stop-color:#c0392b;stop-opacity:1" />
    </linearGradient>
  </defs>
  
  <!-- Main building (tallest) -->
  <rect x="20" y="8" width="24" height="48" fill="url(#buildingGradient)" rx="2"/>
  
  <!-- Left building (medium) -->
  <rect x="6" y="20" width="16" height="36" fill="url(#building2Gradient)" rx="1"/>
  
  <!-- Right building (shortest) -->
  <rect x="42" y="32" width="16" height="24" fill="url(#building3Gradient)" rx="1"/>
  
  <!-- Windows for main building -->
  <rect x="24" y="12" width="4" height="4" fill="#f39c12" rx="0.5"/>
  <rect x="32" y="12" width="4" height="4" fill="#f39c12" rx="0.5"/>
  <rect x="24" y="20" width="4" height="4" fill="#f39c12" rx="0.5"/>
  <rect x="32" y="20" width="4" height="4" fill="#f39c12" rx="0.5"/>
  <rect x="24" y="28" width="4" height="4" fill="#f39c12" rx="0.5"/>
  <rect x="32" y="28" width="4" height="4" fill="#f39c12" rx="0.5"/>
  <rect x="24" y="36" width="4" height="4" fill="#f39c12" rx="0.5"/>
  <rect x="32" y="36" width="4" height="4" fill="#f39c12" rx="0.5"/>
  
  <!-- Windows for left building -->
  <rect x="10" y="24" width="3" height="3" fill="#fff" rx="0.5"/>
  <rect x="15" y="24" width="3" height="3" fill="#fff" rx="0.5"/>
  <rect x="10" y="32" width="3" height="3" fill="#fff" rx="0.5"/>
  <rect x="15" y="32" width="3" height="3" fill="#fff" rx="0.5"/>
  <rect x="10" y="40" width="3" height="3" fill="#fff" rx="0.5"/>
  <rect x="15" y="40" width="3" height="3" fill="#fff" rx="0.5"/>
  
  <!-- Windows for right building -->
  <rect x="46" y="36" width="3" height="3" fill="#fff" rx="0.5"/>
  <rect x="51" y="36" width="3" height="3" fill="#fff" rx="0.5"/>
  <rect x="46" y="44" width="3" height="3" fill="#fff" rx="0.5"/>
  <rect x="51" y="44" width="3" height="3" fill="#fff" rx="0.5"/>
  
  <!-- Entrance for main building -->
  <rect x="28" y="48" width="8" height="8" fill="#34495e" rx="1"/>
  <rect x="30" y="50" width="4" height="6" fill="#2c3e50" rx="0.5"/>
</svg>
