<svg xmlns="http://www.w3.org/2000/svg" viewBox="0 0 100 100" width="100" height="100">
  <!-- Background gradient -->
  <defs>
    <linearGradient id="bgGradient" x1="0%" y1="0%" x2="100%" y2="100%">
      <stop offset="0%" style="stop-color:#667eea;stop-opacity:1" />
      <stop offset="100%" style="stop-color:#764ba2;stop-opacity:1" />
    </linearGradient>
    <linearGradient id="buildingGradient" x1="0%" y1="0%" x2="100%" y2="100%">
      <stop offset="0%" style="stop-color:#4facfe;stop-opacity:1" />
      <stop offset="100%" style="stop-color:#00f2fe;stop-opacity:1" />
    </linearGradient>
    <filter id="shadow" x="-50%" y="-50%" width="200%" height="200%">
      <feDropShadow dx="2" dy="2" stdDeviation="3" flood-color="#000000" flood-opacity="0.3"/>
    </filter>
  </defs>
  
  <!-- Background circle -->
  <circle cx="50" cy="50" r="46" fill="url(#bgGradient)" stroke="#ffffff" stroke-width="2" filter="url(#shadow)"/>
  
  <!-- Main building -->
  <rect x="35" y="30" width="30" height="40" fill="url(#buildingGradient)" rx="2" stroke="#ffffff" stroke-width="1"/>
  
  <!-- Building details -->
  <rect x="38" y="35" width="4" height="4" fill="#ffffff" rx="0.5" opacity="0.9"/>
  <rect x="44" y="35" width="4" height="4" fill="#ffffff" rx="0.5" opacity="0.9"/>
  <rect x="50" y="35" width="4" height="4" fill="#ffffff" rx="0.5" opacity="0.9"/>
  <rect x="56" y="35" width="4" height="4" fill="#ffffff" rx="0.5" opacity="0.9"/>
  
  <rect x="38" y="42" width="4" height="4" fill="#ffffff" rx="0.5" opacity="0.9"/>
  <rect x="44" y="42" width="4" height="4" fill="#ffffff" rx="0.5" opacity="0.9"/>
  <rect x="50" y="42" width="4" height="4" fill="#ffffff" rx="0.5" opacity="0.9"/>
  <rect x="56" y="42" width="4" height="4" fill="#ffffff" rx="0.5" opacity="0.9"/>
  
  <rect x="38" y="49" width="4" height="4" fill="#ffffff" rx="0.5" opacity="0.9"/>
  <rect x="44" y="49" width="4" height="4" fill="#ffffff" rx="0.5" opacity="0.9"/>
  <rect x="50" y="49" width="4" height="4" fill="#ffffff" rx="0.5" opacity="0.9"/>
  <rect x="56" y="49" width="4" height="4" fill="#ffffff" rx="0.5" opacity="0.9"/>
  
  <rect x="38" y="56" width="4" height="4" fill="#ffffff" rx="0.5" opacity="0.9"/>
  <rect x="44" y="56" width="4" height="4" fill="#ffffff" rx="0.5" opacity="0.9"/>
  <rect x="50" y="56" width="4" height="4" fill="#ffffff" rx="0.5" opacity="0.9"/>
  <rect x="56" y="56" width="4" height="4" fill="#ffffff" rx="0.5" opacity="0.9"/>
  
  <!-- Entrance -->
  <rect x="46" y="63" width="8" height="7" fill="#ff6b6b" rx="1" stroke="#ffffff" stroke-width="0.5"/>
  <circle cx="52" cy="66" r="0.5" fill="#ffffff"/>
  
  <!-- Side buildings -->
  <rect x="25" y="45" width="8" height="25" fill="#45b7d1" rx="1" opacity="0.8"/>
  <rect x="67" y="40" width="8" height="30" fill="#96ceb4" rx="1" opacity="0.8"/>
  
  <!-- Windows for side buildings -->
  <rect x="27" y="48" width="2" height="2" fill="#ffffff" rx="0.2" opacity="0.7"/>
  <rect x="30" y="48" width="2" height="2" fill="#ffffff" rx="0.2" opacity="0.7"/>
  <rect x="27" y="52" width="2" height="2" fill="#ffffff" rx="0.2" opacity="0.7"/>
  <rect x="30" y="52" width="2" height="2" fill="#ffffff" rx="0.2" opacity="0.7"/>
  
  <rect x="69" y="43" width="2" height="2" fill="#ffffff" rx="0.2" opacity="0.7"/>
  <rect x="72" y="43" width="2" height="2" fill="#ffffff" rx="0.2" opacity="0.7"/>
  <rect x="69" y="47" width="2" height="2" fill="#ffffff" rx="0.2" opacity="0.7"/>
  <rect x="72" y="47" width="2" height="2" fill="#ffffff" rx="0.2" opacity="0.7"/>
</svg>
